<svg xmlns="http://www.w3.org/2000/svg" width="1024" height="1024" viewBox="0 0 1024 1024" version="1.1">
	<path d="M 485 71.095 C 453.603 74.591, 425.955 82.177, 400.851 94.185 L 388.202 100.235 383.569 97.048 C 372.175 89.208, 361.090 85.993, 345.540 86.017 C 334.417 86.035, 325.710 87.387, 316.500 90.526 C 298.885 96.530, 241.323 123.428, 222.410 134.493 C 192.806 151.813, 178.067 166.402, 171.318 185.064 C 168.859 191.865, 168.631 193.737, 168.654 207 C 168.675 219.507, 169.041 222.829, 171.315 231.169 C 174.971 244.576, 180.850 258.983, 189.548 275.850 C 206.716 309.139, 220.772 324.170, 240.329 330.153 C 254.250 334.413, 269.894 331.064, 281.851 321.265 L 286.316 317.607 285.671 324.053 C 285.316 327.599, 284.557 337.025, 283.983 345 C 281.164 384.219, 278.055 408.301, 272.383 434.861 C 268.046 455.172, 267.263 457.302, 253.972 485 C 232.303 530.156, 227.012 548.623, 227.004 579.119 C 226.998 601.905, 231.110 620.099, 240.312 638 L 244.681 646.500 239.763 650 C 225.147 660.401, 212.437 682.794, 208.978 704.239 C 207.005 716.468, 208.204 741.050, 211.393 753.744 C 216.531 774.200, 225.131 792.511, 237.373 809.064 L 243.707 817.628 237.693 823.028 C 225.373 834.091, 219.569 847.021, 219.526 863.500 C 219.503 872.437, 219.784 874.038, 222.172 878.563 C 230.112 893.607, 248.462 900.792, 276.207 899.721 L 289.914 899.192 291.545 904.846 C 296.324 921.410, 307.309 931.257, 324 933.940 C 328.348 934.639, 391.421 934.987, 514.540 934.992 C 713.091 935.001, 703.733 935.238, 714.130 929.934 C 723.178 925.318, 730.830 915.080, 733.886 903.500 L 734.942 899.500 751.721 899.489 C 769.967 899.477, 776.025 898.412, 786.768 893.330 C 806.328 884.076, 811.392 863.004, 799.824 839 C 797.644 834.477, 794.352 830.179, 788.999 824.869 L 781.306 817.239 786.259 810.869 C 806.771 784.491, 817.973 750.149, 816.713 717.500 C 815.618 689.093, 806.913 669.217, 787.830 651.549 L 780.754 644.997 784.358 638.139 C 793.072 621.555, 797.993 600.207, 797.990 579 C 797.986 549.232, 792.710 530.933, 771.468 487 C 763.820 471.183, 758.173 458.082, 756.596 452.500 C 749.543 427.526, 744.342 390.138, 741.014 340.500 C 740.424 331.700, 739.706 323.023, 739.419 321.217 L 738.897 317.935 743.599 321.524 C 769.772 341.502, 800.642 332.380, 823.211 298 C 849.238 258.351, 861.952 218.306, 856.571 192.923 C 850.696 165.208, 830.310 147.462, 770.500 117.998 C 714.248 90.287, 702.078 85.893, 681.625 85.905 C 665.258 85.914, 653.947 89.172, 642.102 97.286 L 637.705 100.299 632.102 97.241 C 609.624 84.970, 576.420 75.019, 546.122 71.475 C 532.501 69.882, 497.831 69.666, 485 71.095 M 494.500 89.097 C 460.090 92.037, 431.385 99.669, 404.500 113.023 C 375.712 127.324, 354.859 146.013, 343.160 168 C 337.184 179.230, 333.799 189.934, 325.024 225.334 C 320.639 243.025, 314.827 264.700, 312.110 273.500 C 306.844 290.554, 305.290 300.757, 302.973 333.500 C 299.681 380.007, 297.215 402.322, 292.876 424.873 C 291.779 430.578, 291.098 435.814, 291.365 436.509 C 292.136 438.517, 309.521 449.742, 319.958 454.970 C 353.603 471.822, 395.075 482.336, 452.500 488.572 C 472.675 490.763, 538.389 491.660, 560.382 490.045 C 617.660 485.837, 663.759 475.314, 699 458.402 C 709.292 453.463, 732.023 439.390, 733.457 437.070 C 733.764 436.573, 732.677 427.916, 731.040 417.833 C 727.122 393.691, 725.343 377.474, 723.490 349 C 720.331 300.482, 719 290.384, 713.343 272.038 C 710.890 264.084, 704.902 242.031, 700.036 223.031 C 690.774 186.867, 686.798 175.201, 679.546 162.907 C 657.797 126.041, 607.040 98.143, 548 90.606 C 532.582 88.638, 507.992 87.944, 494.500 89.097 M 330.042 106.547 C 314.036 111, 262.523 134.447, 235.500 149.580 C 218.535 159.080, 209.503 165.356, 201.890 172.933 C 190.667 184.105, 187.419 193.247, 188.230 211.390 C 188.659 220.986, 189.295 224.204, 192.898 235 C 200.965 259.172, 219.607 292.853, 230.453 302.850 C 240.612 312.214, 254.238 315.189, 263.849 310.142 C 273.492 305.078, 283.792 292.257, 289.789 277.853 C 294.458 266.638, 300.354 246.164, 306.450 220 C 314.943 183.551, 317.603 175.246, 325.728 159.796 C 334.473 143.169, 350.951 124.364, 364.883 115.114 L 370.275 111.534 363.888 108.537 C 358.176 105.857, 356.336 105.513, 346.500 105.284 C 339.014 105.110, 333.757 105.514, 330.042 106.547 M 665.561 107.109 C 655.305 110.636, 655.113 111.063, 661.757 115.589 C 669.835 121.090, 686.629 138.182, 692.129 146.500 C 698.602 156.289, 705.203 169.822, 708.956 181 C 710.710 186.225, 715.228 203.325, 718.995 219 C 730.511 266.922, 736.862 284.293, 747.855 297.941 C 756.942 309.222, 765.627 313.838, 775.342 312.549 C 791.372 310.423, 804.914 295.598, 821.061 262.500 C 839.038 225.651, 842.413 203.451, 832.880 184.764 C 830.118 179.351, 821.295 170.143, 813.039 164.056 C 792.241 148.724, 718.398 112.638, 696.090 106.904 C 686.058 104.326, 673.408 104.411, 665.561 107.109 M 601.737 210.077 C 584.676 212.036, 568.577 228.352, 564.438 247.878 C 562.471 257.159, 562.663 267.363, 564.975 276.404 C 570.383 297.547, 586.286 313.533, 605.432 317.072 C 626.490 320.965, 647.814 304.855, 653.494 280.760 C 655.388 272.731, 655.388 257.269, 653.494 249.240 C 647.444 223.578, 625.928 207.298, 601.737 210.077 M 403.905 211.898 C 383.145 218.539, 370 239.496, 370 265.950 C 370 282.330, 374.907 295.718, 384.517 305.561 C 404.715 326.249, 437.978 320.039, 454.478 292.500 C 472.549 262.338, 459.916 221.267, 429.661 211.823 C 422.243 209.507, 411.277 209.539, 403.905 211.898 M 409.703 229.383 C 394.979 234.866, 388.431 246.834, 389.190 266.872 C 389.638 278.695, 391.358 283.921, 396.867 290.196 C 401.799 295.813, 408.063 298.294, 415.955 297.757 C 419.555 297.513, 423.850 296.726, 425.500 296.008 L 428.500 294.704 424.177 293.779 C 407.354 290.178, 405.999 263.875, 422.200 255.411 C 429.084 251.814, 438.604 254.940, 442.333 262.020 L 444.165 265.500 443.727 258.406 C 442.980 246.302, 436.663 235.485, 427.622 230.827 C 422.563 228.220, 414.557 227.575, 409.703 229.383 M 600.627 229.468 C 594.488 231.657, 589.771 236.149, 586.086 243.319 C 583.161 249.010, 582.625 251.147, 582.348 258.231 C 582.109 264.353, 582.266 265.758, 582.955 263.643 C 587.200 250.599, 605.416 251.080, 612.337 264.419 C 618.586 276.459, 612.506 291.768, 600.724 293.665 L 596.500 294.345 600.500 296.146 C 605.788 298.528, 615.257 298.522, 620.500 296.134 C 630.344 291.651, 635.981 280.624, 636.134 265.555 C 636.290 250.080, 631.505 238.813, 622.298 232.974 C 614.357 227.938, 607.866 226.888, 600.627 229.468 M 494.713 304.538 C 474.982 308.462, 464.135 319.662, 465.231 334.979 C 466.421 351.622, 479.163 365.675, 496.575 369.549 L 504 371.201 504 380.419 C 504 396.595, 499.151 406.333, 488.502 411.543 C 478.339 416.515, 469.899 415.878, 459.809 409.377 C 453.384 405.237, 450.703 405.143, 446.923 408.923 C 435.708 420.138, 459.986 435.949, 482.655 432.193 C 492.003 430.644, 502.553 425.255, 508.333 419.076 L 512.984 414.103 518.168 419.584 C 524.221 425.984, 532.473 430.291, 542 432.021 C 565.373 436.267, 590.665 420.511, 579.077 408.923 C 575.294 405.140, 572.773 405.238, 565.977 409.433 C 555.720 415.765, 546.730 416.447, 537.256 411.613 C 531.593 408.724, 528.047 405.104, 524.901 399 C 522.965 395.244, 522.516 392.581, 522.190 382.897 L 521.798 371.294 528.521 369.605 C 537.352 367.387, 542.206 364.820, 548.278 359.157 C 560.778 347.499, 564.139 333.375, 557.371 320.940 C 554.060 314.857, 550.349 311.530, 543.215 308.251 C 532.488 303.320, 509.634 301.570, 494.713 304.538 M 441.500 364.131 C 438.241 365.952, 437 368.156, 437 372.119 C 437 376.393, 440.529 380, 444.712 380 C 447.927 380, 453 374.878, 453 371.633 C 453 366.357, 445.855 361.696, 441.500 364.131 M 575.800 366.046 C 573.168 368.678, 572.835 369.594, 573.350 372.772 C 574.464 379.632, 581.804 382.287, 586.545 377.545 C 590.672 373.419, 589.598 366.977, 584.316 364.163 C 580.915 362.352, 579.091 362.755, 575.800 366.046 M 467.500 382.155 C 459.951 386.284, 462.539 398, 471 398 C 478.380 398, 481.501 389.347, 476.077 383.923 C 472.981 380.828, 470.763 380.370, 467.500 382.155 M 549.923 383.923 C 544.499 389.347, 547.620 398, 555 398 C 563.208 398, 566.187 386.217, 558.928 382.463 C 554.863 380.361, 553.219 380.628, 549.923 383.923 M 283.112 465.086 C 281.875 468.925, 277.315 479.229, 272.978 487.982 C 251.485 531.366, 245.599 550.818, 245.590 578.500 C 245.580 611.270, 255.291 635.206, 277.577 657.333 C 283.062 662.780, 299.930 675.471, 300.633 674.680 C 300.721 674.581, 298.372 656.950, 295.412 635.500 C 292.452 614.050, 290.023 594.410, 290.015 591.855 C 289.990 584.044, 293.448 574.830, 298.526 569.183 C 303.200 563.984, 309.624 559.634, 314.400 558.436 C 316.635 557.875, 317.047 557.334, 316.546 555.621 C 316.205 554.454, 315.672 551.250, 315.360 548.500 C 314.850 544.003, 315.061 543.251, 317.453 541.023 C 320.722 537.978, 326.844 537.644, 329.831 540.347 C 330.949 541.359, 332.565 545.183, 333.518 549.074 L 335.215 556 512.449 556 L 689.682 556 690.935 550.250 C 693.119 540.232, 696.975 536.846, 703.679 539.059 C 709.746 541.062, 711.117 545.747, 708.488 555.500 C 708.042 557.155, 708.903 557.910, 713.474 559.873 C 724.731 564.709, 731.981 574.096, 733.989 586.435 C 734.799 591.410, 734.127 598.223, 729.424 632.747 C 726.390 655.010, 724.042 673.603, 724.204 674.065 C 724.758 675.635, 739.974 664.528, 747.582 657 C 757.709 646.981, 764.096 638.176, 769.473 626.825 C 777.912 609.011, 781.703 584.429, 779.085 564.500 C 776.258 542.973, 770.565 526.746, 752.947 490 C 747.013 477.625, 741.592 465.475, 740.899 463 C 740.206 460.525, 739.526 458.343, 739.387 458.151 C 739.249 457.959, 734.688 460.763, 729.252 464.381 C 693.291 488.321, 639.407 503.362, 568 509.391 C 518.257 513.591, 473.594 512.105, 419.500 504.450 C 365.989 496.878, 321.964 482.466, 293 463.037 C 289.975 461.008, 287.019 459.068, 286.430 458.726 C 285.782 458.350, 284.474 460.856, 283.112 465.086 M 317.209 577.668 C 313.035 579.724, 310.291 583.206, 308.967 588.122 C 308.131 591.228, 308.614 596.928, 311.433 617.242 C 316.116 650.980, 328.944 746.510, 335.015 792.855 C 338.307 817.992, 340.418 830.989, 341.468 832.591 C 345.286 838.419, 332.714 838.041, 513.420 837.759 L 679.164 837.500 681.977 834.352 C 683.550 832.591, 685.052 829.507, 685.384 827.352 C 685.711 825.233, 689.375 797.175, 693.527 765 C 697.679 732.825, 704.434 681.439, 708.538 650.810 C 712.642 620.180, 716 593.398, 716 591.294 C 716 585.781, 713.017 580.935, 707.987 578.275 L 703.685 576 512.093 576.023 C 337.421 576.044, 320.209 576.189, 317.209 577.668 M 399.773 655.500 L 400.045 695 407.023 695 L 414 695 414 678.734 C 414 664.806, 414.267 661.968, 415.857 658.984 C 418.020 654.923, 421.170 653.035, 425.816 653.015 C 434.483 652.976, 436 656.769, 436 678.468 L 436 695 443.617 695 L 451.234 695 450.844 675.250 C 450.478 656.656, 450.310 655.207, 447.977 650.501 C 446.598 647.719, 444.027 644.527, 442.177 643.302 C 435.303 638.749, 424.187 639.332, 417.268 644.609 L 414 647.102 414 631.551 L 414 616 406.750 616 L 399.500 615.999 399.773 655.500 M 522 655.500 L 522 695 529.500 695 L 537 695 537 655.500 L 537 616 529.500 616 L 522 616 522 655.500 M 549 655.500 L 549 695 556 695 L 563 695 563 655.500 L 563 616 556 616 L 549 616 549 655.500 M 476.748 641.427 C 467.226 644.825, 461.043 653.662, 460.229 665.039 C 459.259 678.600, 463.764 687.780, 473.796 692.689 C 478.571 695.025, 480.783 695.477, 487.495 695.487 C 496.522 695.502, 502.033 693.726, 508.255 688.798 L 512.122 685.736 507.492 682.444 L 502.863 679.153 499.368 681.525 C 490.234 687.724, 478.203 684.559, 475.515 675.250 L 474.865 673 493.464 673 C 508.755 673, 512.161 672.743, 512.617 671.556 C 513.516 669.212, 511.116 656.148, 509.037 652.073 C 506.521 647.141, 500.992 642.370, 496.277 641.060 C 491.104 639.623, 481.285 639.808, 476.748 641.427 M 591.718 641.437 C 583.858 644.241, 577.725 650.337, 575.155 657.899 C 573.340 663.241, 573.736 675.825, 575.867 680.500 C 580.514 690.694, 588.953 696, 600.518 696 C 618.591 696, 628.968 686.133, 628.990 668.928 C 629.003 658.991, 626.821 652.769, 621.436 647.384 C 614.702 640.649, 601.392 637.986, 591.718 641.437 M 480.871 652.508 C 478.779 653.645, 475 660.090, 475 662.520 C 475 662.784, 480.175 663, 486.500 663 C 497.241 663, 498 662.871, 498 661.047 C 498 653.177, 488.425 648.404, 480.871 652.508 M 595.232 653.228 C 591.929 654.821, 589.007 660.146, 588.338 665.793 C 587.166 675.687, 592.192 682.964, 600.703 683.698 C 609.666 684.470, 615 678.589, 615 667.933 C 615 661.568, 612.613 656.345, 608.580 653.886 C 605.192 651.820, 598.807 651.505, 595.232 653.228 M 246.837 669.135 C 240.220 675.752, 237.559 679.320, 234.255 686.013 C 228.149 698.378, 226.589 705.814, 226.600 722.500 C 226.612 741.659, 230.161 757.265, 238.764 776 C 242.228 783.545, 252.092 798.584, 257.653 804.800 L 261.500 809.100 269.500 807.422 C 284.074 804.364, 300.298 806.695, 318.088 814.402 C 319.893 815.184, 320.705 822.307, 309.924 742.808 L 303.592 696.116 299.349 694.496 C 288.958 690.527, 270.526 677.178, 260.364 666.261 L 255.228 660.744 246.837 669.135 M 767.611 663.471 C 765.431 666.799, 750.244 679.980, 743.211 684.648 C 737.919 688.162, 725.142 695.134, 722.245 696.090 C 721.398 696.369, 719.674 706.441, 716.952 727.002 C 714.731 743.776, 711.195 770.325, 709.095 786 C 706.994 801.675, 705.354 814.604, 705.452 814.731 C 705.549 814.858, 708.750 813.657, 712.564 812.061 C 726.457 806.251, 742.607 804.575, 756.447 807.506 C 764.780 809.272, 764.592 809.394, 774.063 796.113 C 790.303 773.340, 798.287 748.807, 798.345 721.500 C 798.379 705.311, 796.855 697.566, 791.405 686.235 C 787.969 679.091, 778.210 667.422, 771.936 662.954 L 769.218 661.019 767.611 663.471 M 563 751 L 563 789 569.750 789 L 576.500 789 576.500 751 L 576.500 713 569.750 713 L 563 713 563 751 M 623 727.979 L 623 742.959 618.575 739.840 C 607.264 731.867, 592.121 737.042, 587.043 750.615 C 584.549 757.280, 584.378 766.541, 586.611 774.068 C 590.160 786.035, 602.130 792.972, 613.386 789.584 C 616.056 788.781, 619.311 787.117, 620.620 785.888 L 623 783.651 623 786.326 C 623 788.970, 623.078 789, 630 789 L 637 789 637 751 L 637 713 630 713 L 623 713 623 727.979 M 481.071 737.105 C 471.159 740.125, 464.146 749.307, 463.253 760.436 C 462.242 773.030, 467.956 783.584, 478.163 787.975 C 485.579 791.165, 496.670 790.556, 503.444 786.585 C 520.579 776.544, 519.471 747.920, 501.595 738.791 C 496.859 736.373, 486.318 735.507, 481.071 737.105 M 544.500 737.531 C 542.850 738.394, 540.723 740.090, 539.772 741.300 L 538.044 743.500 538.022 740.250 L 538 737 531 737 L 524 737 524 763 L 524 789 531.500 789 L 539 789 539.004 773.750 C 539.007 760.218, 539.235 758.127, 541.026 755.190 C 543.093 751.799, 548.155 749, 552.218 749.001 C 554.365 749.001, 554.492 748.632, 554.363 742.751 L 554.226 736.500 550.863 736.231 C 549.013 736.083, 546.150 736.668, 544.500 737.531 M 382 737.420 C 382 737.652, 384.942 747.439, 388.539 759.170 C 392.135 770.902, 395.564 782.413, 396.158 784.750 L 397.237 789 404.877 789 L 412.517 789 417.008 773.013 C 419.479 764.221, 421.747 757.021, 422.050 757.013 C 422.352 757.006, 423.617 760.487, 424.862 764.750 C 426.106 769.013, 428.248 776.212, 429.622 780.750 L 432.121 789 439.366 789 L 446.612 789 451.962 770.250 C 454.905 759.938, 458.319 748.237, 459.548 744.250 L 461.783 737 454.934 737 L 448.085 737 446.106 743.750 C 445.017 747.462, 442.875 755.381, 441.346 761.348 C 439.816 767.314, 438.440 771.814, 438.287 771.348 C 438.133 770.881, 435.820 763.075, 433.147 754 L 428.285 737.500 422 737.500 L 415.714 737.500 411.320 753 C 408.903 761.525, 406.669 769.175, 406.354 770 C 405.880 771.244, 401.935 758.975, 396.949 740.750 L 395.923 737 388.961 737 C 385.133 737, 382 737.189, 382 737.420 M 485.309 748.128 C 483.537 748.627, 481.090 750.466, 479.809 752.263 C 477.879 754.969, 477.500 756.759, 477.500 763.177 C 477.500 772.309, 479.384 775.688, 485.725 777.930 C 491.191 779.861, 496.549 777.928, 499.459 772.974 C 502.157 768.381, 502.311 757.650, 499.736 753.720 C 496.448 748.702, 490.904 746.553, 485.309 748.128 M 604.881 749.503 C 599.590 752.379, 597.299 762.992, 600.379 770.364 C 604.513 780.259, 617.517 780.664, 621.376 771.018 C 627.061 756.810, 616.583 743.144, 604.881 749.503 M 272.043 826.085 C 254.426 829.178, 238.081 845.979, 237.721 861.363 C 237.532 869.424, 242.514 875.959, 250.750 878.453 C 252.918 879.110, 253 878.905, 252.997 872.817 C 252.987 853.625, 265.094 837.587, 274.091 844.873 C 277.211 847.399, 277.032 852.887, 273.670 857.806 C 271.083 861.590, 269 870.291, 269 877.313 L 269 881.258 277.194 880.543 C 281.700 880.150, 287.069 879.156, 289.124 878.334 L 292.860 876.839 292.680 866.502 C 292.511 856.814, 292.652 856.004, 294.924 853.583 C 300.242 847.917, 306.521 851.718, 307.765 861.356 L 308.500 867.051 317.903 857.603 L 327.307 848.155 325.978 844.946 C 323.546 839.076, 309.030 829.881, 298 827.224 C 291.181 825.582, 278.163 825.010, 272.043 826.085 M 733.500 826.046 C 720.701 827.736, 710.944 832.904, 701.930 842.767 L 696.802 848.378 706.651 857.681 C 712.068 862.798, 716.612 866.988, 716.750 866.993 C 716.888 866.997, 717 864.953, 717 862.450 C 717 853.944, 721.749 849.198, 727.594 851.861 C 731.160 853.486, 732.179 857.322, 731.871 867.970 L 731.597 877.440 736.048 878.751 C 738.497 879.471, 744.040 880.343, 748.366 880.688 L 756.233 881.314 755.537 874.907 C 754.566 865.962, 753.209 860.963, 750.867 857.693 C 749.761 856.149, 748.610 853.370, 748.309 851.516 C 747.868 848.800, 748.261 847.648, 750.336 845.573 C 753.404 842.505, 756.377 842.323, 760.671 844.941 C 766.827 848.694, 771.951 861.743, 771.985 873.750 C 772.003 879.958, 772.840 880.249, 778.922 876.164 C 785.156 871.977, 786.986 868.632, 786.993 861.410 C 787.011 845.252, 770.414 828.708, 751.500 826.031 C 743.651 824.919, 742.020 824.921, 733.500 826.046 M 335.500 866 L 326.542 875 512.521 874.986 L 698.500 874.973 689.395 865.986 L 680.289 857 512.374 857 L 344.458 857 335.500 866 M 307.544 897.250 C 309.991 905.365, 316.106 912.103, 322.679 913.928 C 325.310 914.658, 384.689 914.991, 513.282 914.994 C 679.892 914.999, 700.466 914.832, 703.782 913.447 C 710.145 910.789, 714.959 905.117, 717.055 897.808 L 717.860 895 512.363 895 L 306.865 895 307.544 897.250" stroke="none" fill="#34a216" fill-rule="evenodd"/>
</svg>