
<svg width="692" height="868" viewBox="0 0 692 868" fill="none" xmlns="http://www.w3.org/2000/svg">
<path d="M399 6C400.056 6.21962 401.112 6.43925 402.199 6.66552C424.667 11.4067 449.677 18.1177 469 31C472.328 30.7457 474.823 28.9974 477.614 27.2695C494.902 16.6473 515.925 14.6802 535.688 19.375C538.173 20.1896 540.571 21.046 543 22C543.781 22.296 544.562 22.592 545.367 22.897C565.053 30.4454 584.029 39.8363 603 49C603.937 49.4524 603.937 49.4524 604.894 49.9139C618.274 56.3806 631.398 63.1088 644 71C644.642 71.399 645.285 71.7979 645.946 72.209C665.817 84.6544 683.047 99.5028 689.938 122.75C697.555 158.33 677.515 197.919 659 227C647.869 243.666 634.853 258.61 614.617 263.586C599.066 266.046 587.654 261.64 575 253C574.34 252.67 573.68 252.34 573 252C578.311 339.428 578.311 339.428 606.305 421.455C615.277 439.166 623.498 457.588 628 477C628.161 477.685 628.322 478.371 628.487 479.077C635.504 510.636 631.908 545.911 615.75 574.188C614.695 576.177 614.695 576.177 616 579C617.526 580.508 617.526 580.508 619.438 582C633.332 593.906 641.871 607.514 647 625C647.48 626.616 647.48 626.616 647.969 628.266C656.439 662.617 646.489 700.714 628.563 730.375C624.483 736.975 620.123 743.158 615 749C615.66 749.66 616.32 750.32 617 751C617.456 751.463 617.913 751.926 618.383 752.402C619.519 753.525 620.684 754.619 621.867 755.691C631.831 764.977 638.014 777.187 639.379 790.77C639.697 800.887 638.245 809.394 631.75 817.375C621.45 828 606.368 831.896 591.906 832.133C590.104 832.135 588.302 832.133 586.5 832.125C585.602 832.129 584.703 832.133 583.777 832.137C578.427 832.129 573.294 831.779 568 831C567.794 832.237 567.588 833.475 567.375 834.75C565.281 844.035 560.842 853.322 553 859C541.091 866.169 530.5 867.299 516.862 867.254C515.327 867.256 513.792 867.259 512.257 867.263C508.056 867.272 503.854 867.268 499.652 867.261C495.114 867.257 490.576 867.264 486.038 867.269C477.155 867.278 468.271 867.276 459.388 867.271C452.166 867.266 444.945 867.265 437.724 867.268C436.696 867.268 435.667 867.268 434.608 867.269C432.519 867.269 430.429 867.27 428.34 867.271C408.756 867.276 389.171 867.27 369.587 867.259C352.79 867.25 335.993 867.252 319.196 867.261C299.682 867.271 280.169 867.276 260.655 867.27C258.573 867.269 256.492 867.268 254.41 867.268C253.386 867.267 252.362 867.267 251.306 867.267C244.096 867.265 236.886 867.268 229.675 867.273C220.885 867.278 212.095 867.277 203.304 867.266C198.821 867.261 194.338 867.259 189.855 867.265C185.747 867.271 181.64 867.268 177.532 867.257C176.05 867.255 174.567 867.256 173.085 867.261C158.748 867.305 145.265 865.933 134.125 855.875C127.838 848.927 124.519 840.115 123 831C122.064 831.161 121.128 831.322 120.164 831.488C101.7 834.108 80.1491 833.183 64.5626 822.062C57.2285 816.065 52.6516 809.183 51.6485 799.664C51.2493 783.224 56.4487 769.073 67.8086 757.137C70.4321 754.579 73.0964 752.234 76.0001 750C72.8757 745.207 69.662 740.547 66.1876 736C44.991 706.875 36.216 668.208 41.6993 632.676C45.9172 611.009 58.1682 591.837 76.0001 579C75.3919 574.687 73.8128 571.504 71.7501 567.688C62.4106 549.635 59.3876 529.817 59.5626 509.688C59.5676 508.546 59.5676 508.546 59.5728 507.382C59.6507 495.2 60.5265 483.738 64.0001 472C64.2308 471.191 64.4615 470.382 64.6993 469.548C70.3962 449.975 79.124 431.517 88.3126 413.375C113.295 363.869 114.727 305.483 118 251C117.087 251.745 117.087 251.745 116.156 252.504C104.112 262.258 92.3611 265.449 77.0001 264C73.0111 263.168 69.6306 261.832 66.0001 260C65.0152 259.514 64.0304 259.028 63.0157 258.527C33.198 242.521 14.8159 199.609 5.26909 168.628C-0.896599 147.756 -2.09662 126.468 8.34771 106.805C10.8793 102.508 13.6946 98.7307 17.0001 95C17.7335 94.1608 18.467 93.3216 19.2227 92.457C46.547 63.1901 90.795 46.6664 127 31C128.556 30.3225 128.556 30.3225 130.143 29.6313C153.133 19.679 176.929 12.8003 201.824 20.7227C207.568 23.0327 213.304 25.6326 217.988 29.7461C219.915 31.1996 219.915 31.1996 222.191 30.9648C225.419 29.856 228.344 28.4157 231.38 26.864C252.924 15.8999 276.219 9.00923 300 5C300.854 4.83919 301.707 4.67838 302.587 4.51269C333.304 -1.20175 368.526 -0.622385 399 6Z" fill="#0B191D"/>
<path d="M492.102 69.4219C493.058 70.2727 494.015 71.1234 495 72C495.75 72.6652 496.5 73.3303 497.273 74.0156C521.359 96.6734 527.858 130.766 535.344 161.47C538.947 176.178 542.98 190.694 547.523 205.139C550.089 213.365 552.018 221.417 553 230C553.12 231.031 553.239 232.061 553.363 233.123C553.733 236.538 554.06 239.955 554.375 243.375C554.437 244.028 554.499 244.68 554.563 245.352C555.484 255.103 556.208 264.859 556.836 274.633C557.137 279.255 557.442 283.878 557.75 288.5C557.828 289.666 557.905 290.832 557.985 292.033C559.32 311.615 561.676 330.914 564.802 350.287C564.954 351.246 565.107 352.204 565.265 353.192C565.55 354.969 565.844 356.745 566.148 358.519C567.383 366.127 567.383 366.127 566 370C563.996 371.82 562.165 373.259 559.938 374.75C559.001 375.395 559.001 375.395 558.046 376.052C550.959 380.844 543.573 385.033 536 389C535.379 389.332 534.758 389.664 534.119 390.006C512.432 401.474 487.848 407.867 464 413C462.353 413.37 460.706 413.74 459.059 414.109C449.193 416.26 439.252 417.76 429.25 419.125C428.098 419.284 426.946 419.442 425.759 419.606C421.844 420.117 417.925 420.57 414 421C412.827 421.134 412.827 421.134 411.63 421.271C392.933 423.341 374.235 423.342 355.45 423.316C351.918 423.311 348.386 423.318 344.854 423.336C321.397 423.456 298.317 422.62 275 420C273.561 419.839 273.561 419.839 272.092 419.676C267.088 419.102 262.107 418.431 257.125 417.688C256.417 417.584 255.71 417.48 254.981 417.373C212.808 411.15 155.587 400.587 124 369C124.175 359.142 126.399 349.297 128.096 339.621C131.819 317.954 133.183 296.127 134.747 274.226C135.353 265.772 135.991 257.322 136.685 248.875C136.886 246.407 137.078 243.938 137.26 241.468C138.426 226.017 141.743 212.261 146.588 197.56C149.127 189.791 151.195 181.947 153.168 174.02C153.335 173.353 153.502 172.687 153.674 172C154.856 167.274 156.023 162.543 157.188 157.812C168.329 112.587 168.329 112.587 175.188 100.25C175.561 99.5623 175.935 98.8746 176.32 98.166C180.442 90.835 185.471 84.3162 191 78C192.04 76.807 192.04 76.807 193.102 75.5898C257.608 6.97379 381.01 5.51067 492.102 69.4219Z" fill="#8EC4C1"/>
<path d="M159.344 507.866C159.993 507.863 160.643 507.861 161.312 507.859C163.503 507.852 165.694 507.852 167.885 507.853C169.466 507.85 171.047 507.846 172.627 507.842C176.983 507.832 181.339 507.828 185.695 507.825C190.389 507.821 195.082 507.812 199.776 507.803C211.116 507.783 222.456 507.773 233.797 507.764C239.135 507.76 244.473 507.755 249.811 507.749C267.552 507.732 285.293 507.718 303.034 507.711C307.639 507.709 312.244 507.707 316.849 507.705C318.566 507.704 318.566 507.704 320.318 507.703C338.865 507.695 357.412 507.67 375.958 507.637C394.992 507.604 414.027 507.586 433.061 507.583C443.751 507.581 454.441 507.572 465.131 507.547C474.234 507.525 483.337 507.517 492.44 507.526C497.085 507.531 501.73 507.529 506.375 507.51C510.628 507.492 514.881 507.493 519.134 507.509C520.672 507.511 522.21 507.507 523.747 507.495C531.693 507.437 538.228 507.407 545 512C550.192 518.361 549.457 524.882 548.752 532.775C548.407 535.699 548.013 538.612 547.602 541.527C547.451 542.635 547.301 543.743 547.147 544.884C546.819 547.296 546.488 549.707 546.154 552.118C545.61 556.045 545.075 559.974 544.542 563.903C544.355 565.283 544.168 566.663 543.981 568.043C543.887 568.738 543.793 569.434 543.696 570.15C543.403 572.306 543.109 574.461 542.815 576.617C540.639 592.593 538.536 608.578 536.437 624.564C536.02 627.737 535.602 630.91 535.185 634.082C532.969 650.915 530.769 667.75 528.591 684.588C528.248 687.24 527.905 689.892 527.561 692.543C526.242 702.737 526.242 702.737 524.928 712.93C523.796 721.73 522.65 730.526 521.48 739.321C521.042 742.679 520.63 746.04 520.226 749.402C519.994 751.206 519.761 753.009 519.527 754.812C519.402 755.968 519.402 755.968 519.274 757.146C518.53 762.602 516.824 765.237 513 769C509.894 770.035 507.751 770.129 504.494 770.137C503.342 770.142 502.19 770.147 501.004 770.152C499.732 770.153 498.461 770.153 497.152 770.154C495.792 770.158 494.433 770.162 493.073 770.167C489.329 770.179 485.585 770.185 481.841 770.189C477.806 770.195 473.771 770.207 469.736 770.218C459.988 770.242 450.241 770.257 440.494 770.27C437.741 770.273 434.989 770.277 432.237 770.281C415.153 770.307 398.069 770.329 380.984 770.341C377.027 770.344 373.069 770.347 369.112 770.35C368.128 770.351 367.145 770.352 366.131 770.352C350.189 770.365 334.247 770.398 318.305 770.44C301.944 770.482 285.584 770.506 269.223 770.511C260.035 770.514 250.846 770.526 241.657 770.559C233.834 770.587 226.01 770.598 218.186 770.587C214.194 770.582 210.201 770.585 206.209 770.609C202.554 770.632 198.899 770.631 195.244 770.612C193.295 770.608 191.346 770.629 189.398 770.65C179.938 770.564 179.938 770.564 176.247 767.643C173.72 764.671 172.941 762.766 172.228 758.952C172.008 757.804 171.787 756.656 171.56 755.473C170.717 750.243 169.964 745.022 169.344 739.762C169.129 738.019 169.129 738.019 168.909 736.241C168.517 733.059 168.13 729.876 167.744 726.693C166.972 720.353 166.175 714.017 165.379 707.68C165.286 706.938 165.193 706.196 165.097 705.431C162.703 686.37 160.074 667.341 157.437 648.312C157.199 646.593 156.962 644.874 156.724 643.155C156.253 639.754 155.782 636.352 155.311 632.951C155.196 632.121 155.081 631.292 154.963 630.438C154.733 628.778 154.503 627.119 154.273 625.46C152.016 609.171 149.814 592.875 147.639 576.574C146.362 567.012 145.085 557.452 143.687 547.906C143.589 547.23 143.49 546.553 143.388 545.856C142.956 542.904 142.517 539.952 142.065 537.003C140.745 528.146 139.695 520.718 145 513C149.642 508.584 153.067 507.875 159.344 507.866Z" fill="#FDFDFD"/>
<path d="M345.062 220.625C346.158 220.626 346.158 220.626 347.276 220.627C358.625 220.666 369.161 221.47 380 225C380.699 225.214 381.398 225.429 382.118 225.649C403.045 232.117 422.247 242.697 438 258C438.819 258.745 439.637 259.49 440.48 260.258C456.099 274.932 467.78 296.404 469 318C469.079 319.191 469.079 319.191 469.16 320.406C469.852 340.379 462.652 356.646 451.519 372.745C443.875 383.862 440.873 394.698 440.375 408.063C440.317 409.361 440.317 409.361 440.258 410.686C440.165 412.79 440.081 414.895 440 417C436.169 417.641 432.335 418.259 428.5 418.875C427.461 419.049 426.422 419.223 425.352 419.402C402.134 423.09 378.897 423.349 355.45 423.316C351.918 423.311 348.386 423.318 344.853 423.336C313.562 423.497 283.001 421.451 252 417C252.07 415.654 252.07 415.654 252.141 414.281C252.649 396.69 247.888 381.333 237.5 367C225.838 350.882 220.534 331.774 223.281 311.973C226.908 290.867 238.58 274.299 253 259C253.584 258.363 254.168 257.726 254.769 257.07C259.337 252.257 264.46 248.623 270 245C270.579 244.614 271.159 244.228 271.755 243.831C294.19 228.942 317.979 220.549 345.062 220.625Z" fill="#FCFDFC"/>
<path d="M118 390C123.088 392.735 128.01 395.635 132.875 398.75C210.314 446.412 321.484 448.448 445 436C446.121 435.828 447.242 435.655 448.397 435.478C488.334 429.164 531.973 417.858 565.109 393.961C567.712 392.195 570.039 391.02 573 390C573.514 391.57 573.514 391.57 574.039 393.172C577.544 403.432 581.873 413.036 586.812 422.688C606.005 460.273 621.74 501.869 608.687 544.188C607.831 546.807 606.929 549.406 606 552C605.618 553.074 605.237 554.148 604.844 555.254C596.53 576.797 578.251 596.095 558 607C557.34 606.67 556.68 606.34 556 606C556.11 605.218 556.221 604.436 556.335 603.631C557.381 596.232 558.425 588.832 559.468 581.433C560.005 577.629 560.541 573.826 561.079 570.023C561.599 566.346 562.118 562.67 562.635 558.994C562.832 557.597 563.03 556.201 563.227 554.804C568.05 528.116 568.05 528.116 560.75 503.059C555.828 496.585 548.473 492.837 541 490C541.178 488.554 541.178 488.554 541.359 487.078C541.488 485.815 541.617 484.552 541.75 483.25C541.959 481.371 541.959 481.371 542.172 479.453C542.306 475.979 542.306 475.979 540.301 473.578C537.75 471.829 536.498 471.459 533.437 471.5C532.673 471.49 531.909 471.479 531.121 471.469C528.41 471.911 528.41 471.911 526 476C524.515 481.94 524.515 481.94 523 488C405.85 488 288.7 488 168 488C166.68 483.71 165.36 479.42 164 475C161.437 471.87 161.437 471.87 158.844 471.602C157.684 471.613 157.684 471.613 156.5 471.625C155.726 471.617 154.953 471.61 154.156 471.602C151.49 472.094 150.596 472.833 149 475C148.602 480.079 149.295 484.977 150 490C149.443 490.219 148.886 490.438 148.312 490.664C137.46 495.174 130.494 501.03 125.832 511.914C121.657 522.382 124.263 534.815 125.882 545.692C126.232 548.037 126.568 550.383 126.902 552.731C127.611 557.697 128.336 562.661 129.062 567.625C129.908 573.418 130.746 579.213 131.573 585.009C131.905 587.316 132.246 589.622 132.589 591.928C132.791 593.338 132.994 594.749 133.195 596.159C133.375 597.387 133.555 598.615 133.741 599.88C133.97 602.644 133.905 604.414 133 607C113.959 595.026 99.356 581.096 88.9999 561C88.5294 560.134 88.0589 559.267 87.5741 558.375C73.0224 529.542 75.9691 494.941 85.5624 465.25C90.5705 450.429 97.3635 436.472 104.195 422.426C105.256 420.242 106.316 418.059 107.375 415.875C107.883 414.83 108.391 413.784 108.914 412.708C112.482 405.285 115.577 397.875 118 390Z" fill="#8EC4C1"/>
<path d="M201.277 42.6367C201.846 43.0866 202.414 43.5365 203 44C202.25 44.5453 201.499 45.0906 200.727 45.6523C164.314 72.4803 150.969 105.308 140.947 148.003C138.108 160.036 135.079 172.026 132 184C131.766 184.913 131.531 185.826 131.29 186.767C126.072 206.753 117.483 230.179 99.2656 241.734C92.2643 245.255 85.9567 246.447 78.3632 244.23C54.5559 235.298 42.6436 207.74 32.625 186.102C26.1099 171.433 20.8339 156.516 20.6875 140.438C20.6584 139.403 20.6294 138.369 20.5996 137.303C20.4902 123.867 25.7915 113.452 34.75 103.688C62.2135 77.4476 164.654 16.3157 201.277 42.6367Z" fill="#8EC4C2"/>
<path d="M512.75 36.5C513.926 36.4726 513.926 36.4726 515.127 36.4446C528.994 36.5831 541.892 42.2727 554.375 47.75C555.121 48.0737 555.867 48.3974 556.636 48.7309C656.314 91.9941 656.314 91.9941 668.438 121.438C676.294 142.822 667.73 166.534 658.978 186.309C657.103 190.316 655.083 194.237 652.991 198.135C651.99 200.019 651.027 201.918 650.07 203.824C642.066 219.596 631.422 237.705 614 244C605.816 245.932 599.774 245.608 592.34 241.461C573.434 229.657 565.806 205.32 560 185C559.761 184.18 559.521 183.36 559.275 182.515C555.9 170.898 553.104 159.184 550.5 147.375C547.858 135.405 544.906 123.626 541 112C540.615 110.844 540.229 109.687 539.832 108.496C534.783 94.4526 527.515 81.4816 518 70C517.316 69.1634 516.631 68.3268 515.926 67.4648C508.196 58.4491 499.005 50.4068 489 44C495.113 37.1843 504.121 36.6011 512.75 36.5Z" fill="#8EC4C2"/>
<path d="M573 390C573.514 391.57 573.514 391.57 574.039 393.172C577.544 403.432 581.873 413.036 586.812 422.688C606.005 460.273 621.74 501.869 608.688 544.188C607.831 546.807 606.929 549.406 606 552C605.428 553.611 605.428 553.611 604.844 555.254C596.53 576.797 578.251 596.095 558 607C557.34 606.67 556.68 606.34 556 606C556.111 605.218 556.221 604.436 556.335 603.631C557.381 596.232 558.425 588.832 559.469 581.433C560.005 577.629 560.542 573.826 561.079 570.023C561.599 566.346 562.118 562.67 562.635 558.994C562.832 557.597 563.03 556.201 563.228 554.804C568.051 528.116 568.051 528.116 560.75 503.059C555.828 496.585 548.473 492.837 541 490C541.178 488.554 541.178 488.554 541.359 487.078C541.488 485.815 541.617 484.552 541.75 483.25C541.959 481.371 541.959 481.371 542.172 479.453C542.306 475.979 542.306 475.979 540.301 473.578C537.75 471.829 536.498 471.459 533.438 471.5C532.673 471.49 531.909 471.479 531.121 471.469C528.41 471.911 528.41 471.911 526 476C524.68 479.63 523.36 483.26 522 487C503.85 487 485.7 487 467 487C461.062 474.188 461.062 474.188 459.125 470.001C456.496 464.333 453.858 458.673 451.133 453.051C450.715 452.186 450.297 451.322 449.867 450.431C449.098 448.847 448.323 447.266 447.541 445.688C445.822 442.139 445 440.017 445 436C445.645 435.896 446.29 435.791 446.955 435.684C488.991 428.739 533.125 417.373 568 392C571 390 571 390 573 390Z" fill="#8EC4C1"/>
<path d="M244 436C253.911 436.506 263.688 437.363 273.531 438.671C325.531 445.487 380.045 445.937 431.918 437.551C435.98 436.922 439.894 436.902 444 437C449.081 447.016 454.04 457.094 458.963 467.189C459.655 468.605 460.348 470.02 461.044 471.435C462.035 473.45 463.018 475.469 464 477.488C464.866 479.26 464.866 479.26 465.75 481.068C467 484 467 484 467 487C485.15 487 503.3 487 522 487C522.33 484.36 522.66 481.72 523 479C523.33 479 523.66 479 524 479C523.67 481.97 523.34 484.94 523 488C405.85 488 288.7 488 168 488C168.33 487.01 168.66 486.02 169 485C169 485.66 169 486.32 169 487C187.48 487 205.96 487 225 487C225.66 485.02 226.32 483.04 227 481C228.143 478.423 229.309 475.873 230.52 473.328C230.86 472.606 231.2 471.883 231.551 471.139C232.27 469.615 232.99 468.092 233.712 466.57C234.802 464.272 235.887 461.972 236.971 459.672C240.559 452.07 244.182 444.49 248 437C246.68 436.67 245.36 436.34 244 436Z" fill="#FCFDFD"/>
<path d="M602 593C616.999 602.545 625.806 615.646 630.309 632.746C636.788 663.238 628.336 696.593 611.773 722.559C609.637 725.798 607.328 728.896 605 732C604.376 732.949 603.752 733.897 603.109 734.875C601.217 737.482 599.733 739.288 597 741C593.707 741.121 590.964 740.525 587.758 739.773C572.109 736.553 557.058 740.018 542.582 746.109C541.73 746.403 540.878 746.697 540 747C539.34 746.67 538.68 746.34 538 746C540.954 721.627 544.126 697.283 547.385 672.949C547.686 670.696 547.987 668.442 548.287 666.189C548.768 662.581 549.252 658.973 549.737 655.366C550.003 653.391 550.266 651.415 550.529 649.439C551 645.956 551.493 642.478 552 639C552.224 637.395 552.224 637.395 552.453 635.757C552.684 634.275 552.684 634.275 552.92 632.764C553.049 631.901 553.179 631.039 553.313 630.151C554.134 627.58 554.997 626.839 557.273 625.457C558.625 624.87 559.993 624.323 561.375 623.812C562.841 623.174 564.305 622.53 565.766 621.879C566.488 621.567 567.211 621.255 567.955 620.934C575.916 617.297 582.739 611.554 589.375 605.938C589.946 605.455 590.517 604.973 591.106 604.476C595.145 600.967 598.619 597.142 602 593Z" fill="#8EC4C2"/>
<path d="M88 593C92.1878 596.512 96.1337 600.134 100 604C107.389 611.214 116.432 618.95 126.438 622.073C130.46 623.419 134.051 624.858 137 628C140.199 634.611 140.284 642.49 140.938 649.688C141.183 651.86 141.434 654.031 141.692 656.202C142.229 660.773 142.733 665.347 143.216 669.924C143.98 677.014 144.915 684.074 145.898 691.137C146.059 692.291 146.219 693.446 146.385 694.636C146.704 696.931 147.025 699.226 147.346 701.52C149.499 716.989 151.471 732.457 153 748C151.983 747.57 150.965 747.14 149.917 746.697C135.649 740.721 121.408 736.575 105.809 739.809C95.5006 741.893 95.5006 741.893 91.3086 739.398C88.8332 736.755 86.9403 734.058 85 731C83.8824 729.403 83.8824 729.403 82.7422 727.773C64.9305 701.902 55.2644 670.396 59.4727 638.926C62.9709 620.22 72.8943 604.444 88 593Z" fill="#8EC4C2"/>
<path d="M345.5 234.75C346.455 234.742 347.41 234.735 348.395 234.727C361.169 234.761 374.987 236.927 385.211 245.152C390.326 250.435 394.107 257.149 394.25 264.562C394.064 275.234 390.12 283.105 383 291C374.915 298.228 365.649 301.661 355 303C354.717 319.14 354.717 319.14 360 334C360.4 334.648 360.799 335.297 361.211 335.965C365.599 341.964 372.35 345.271 379.617 346.41C387.317 346.686 393.825 344.599 400.125 340.25C403.12 338.281 403.963 338.001 407.75 337.875C411.684 339.237 412.985 340.373 415 344C415.631 347.708 415.192 349.582 413.625 353C406.408 361.248 396.437 364.264 385.805 365.316C372.768 365.803 361.601 361.755 351.895 353.129C348.495 349.865 348.495 349.865 347 348C346.5 347 346 346.68 346 346C345.34 346 346.18 346 345.5 346C345.251 346.579 344.502 347.158 344.246 347.754C338 354.5 331.196 359.97 323 363C322.018 363.369 322.018 363.369 321.016 363.746C310.419 367.029 298.928 365.557 289 361C283.979 358.289 279.087 355.565 277 350C276.451 346.234 276.369 343.908 278.562 341.188C281.004 338.159 284.142 337.5 288 338C291.439 338.446 293.142 340.864 295.656 342.496C301.151 346.022 306.614 346.817 313 346C322.045 343.593 327.802 340.274 332.887 332.391C335.943 325.828 336.363 319.12 336.625 312C336.664 311.13 336.702 310.26 336.742 309.363C336.835 307.242 336.919 305.121 337 303C335.875 302.87 335.875 302.87 334.727 302.738C322.964 301.124 314.064 296.851 306 288C299.449 279.05 296.654 270.104 298 259C300.256 251.613 304.552 246.185 311 242C322.036 236.205 333.173 234.65 345.5 234.75Z" fill="#0A191D"/>
<path d="M140 827C275.63 827 411.26 827 551 827C547.58 837.259 547.58 837.259 544.812 840.375C544.283 841.001 543.753 841.628 543.207 842.273C535.699 848.147 526.847 847.427 517.817 847.388C516.265 847.392 514.713 847.397 513.161 847.404C508.907 847.418 504.654 847.414 500.401 847.407C495.809 847.402 491.217 847.415 486.625 847.425C477.635 847.442 468.644 847.443 459.653 847.438C452.346 847.434 445.039 847.435 437.732 847.44C436.172 847.442 436.172 847.442 434.58 847.443C432.467 847.444 430.354 847.446 428.241 847.447C408.429 847.461 388.616 847.456 368.804 847.444C350.678 847.434 332.552 847.447 314.425 847.471C295.811 847.495 277.198 847.505 258.584 847.498C248.134 847.495 237.685 847.497 227.235 847.515C218.341 847.529 209.446 847.53 200.552 847.513C196.014 847.504 191.477 847.502 186.939 847.517C182.784 847.531 178.629 847.526 174.474 847.507C172.972 847.503 171.471 847.506 169.969 847.517C160.83 847.575 154.064 847.2 146.758 841.141C146.219 840.517 145.68 839.893 145.125 839.25C144.571 838.636 144.016 838.023 143.445 837.391C142 835 142 835 140 827Z" fill="#FDFDFD"/>
<path d="M273.687 148.75C285.143 156.979 292.634 167.903 295.562 181.852C297.793 197.907 294.808 214.251 286 228C277.612 238.956 266.884 247.408 253 250C239.56 251.044 230.104 248.354 219.441 240.133C210.059 231.936 203.77 218.994 202.815 206.605C202.029 191.142 202.997 176.177 212 163C212.503 162.242 213.005 161.484 213.523 160.703C227.618 140.984 253.368 136.102 273.687 148.75Z" fill="#0A181D"/>
<path d="M440.25 141.5C441.5 141.51 441.5 141.51 442.775 141.52C454.632 141.869 464.267 147.113 473 155C486.173 169.814 489.107 185.991 488.243 205.158C487.113 218.39 480.954 231.036 471.352 240.176C460.372 248.693 448.465 250.341 435 249C423.061 246.058 413.14 237.816 406 228C396.724 212.627 393.32 195.569 397.125 177.812C401.235 164.6 408.956 153.836 420.566 146.254C427.136 142.869 432.847 141.44 440.25 141.5Z" fill="#0A191D"/>
<path d="M191.002 787.563C192.39 787.546 193.777 787.524 195.165 787.498C198.95 787.441 202.733 787.452 206.519 787.474C210.612 787.487 214.704 787.436 218.797 787.394C226.806 787.322 234.814 787.31 242.823 787.321C249.338 787.33 255.852 787.319 262.367 787.294C263.296 787.291 264.225 787.288 265.182 787.284C267.069 787.277 268.957 787.27 270.844 787.263C288.529 787.201 306.214 787.211 323.9 787.242C340.051 787.268 356.201 787.202 372.352 787.093C388.963 786.982 405.573 786.934 422.184 786.953C431.499 786.963 440.813 786.948 450.128 786.866C458.061 786.798 465.991 786.789 473.924 786.856C477.967 786.888 482.004 786.895 486.046 786.826C512.717 786.399 512.717 786.399 522.286 795.18C531 804.404 531 804.404 531 807C408.57 807 286.14 807 160 807C161.98 804.69 163.96 802.38 166 800C166.825 798.997 167.65 797.994 168.5 796.961C175.359 789.255 180.604 787.395 191.002 787.563Z" fill="#F7F7F7"/>
<path d="M605 766C607.75 768.437 607.75 768.437 610 771C610.491 771.512 610.982 772.023 611.488 772.551C618.336 779.942 620.752 786.932 620.375 797.043C619.862 801.087 618.889 803.111 616 806C609.356 811 609.356 811 605 811C604.902 809.817 604.804 808.633 604.703 807.414C603.355 791.378 603.355 791.378 595 778C592.21 775.884 590.964 776.002 587.375 776.187C583.737 776.659 583.737 776.659 582 780C582.148 784.508 582.247 786.979 584.938 790.625C588.886 797.087 589.17 805.518 589 813C580.517 813.283 571.639 813.006 564 809C564.021 808.385 564.042 807.769 564.063 807.136C564.147 804.341 564.199 801.546 564.25 798.75C564.284 797.782 564.317 796.814 564.352 795.816C564.508 790.246 564.508 790.246 562.211 785.328C559.912 783.689 559.912 783.689 556.375 784C552.994 784.613 552.994 784.613 551.828 786.734C550.895 789.288 550.589 791.542 550.375 794.25C550.3 795.142 550.225 796.034 550.148 796.953C550.099 797.629 550.05 798.304 550 799C549.34 799 548.68 799 548 799C546.625 797.566 546.625 797.566 545 795.562C541.351 791.227 537.27 787.625 532.941 783.98C531 782 531 782 531 779C539.158 766.933 551.407 760.245 565.352 757.539C579.574 755.438 593.267 757.333 605 766Z" fill="#FAFBFB"/>
<path d="M156.039 772.07C158.019 774.019 159.13 775.368 160 778C159.553 781.756 157.861 783.502 155.219 786.109C154.459 786.863 153.7 787.618 152.918 788.394C151.721 789.56 151.721 789.56 150.5 790.75C149.702 791.543 148.904 792.335 148.082 793.152C142.154 799 142.154 799 141 799C140.836 797.753 140.836 797.753 140.668 796.48C140.43 794.85 140.43 794.85 140.187 793.187C140.037 792.108 139.886 791.03 139.73 789.918C138.977 786.909 138.505 785.765 136 784C132.779 783.597 130.866 783.373 128.187 785.312C126.086 788.298 125.879 790.92 125.902 794.449C125.905 795.297 125.909 796.144 125.912 797.018C125.92 797.899 125.929 798.78 125.937 799.687C125.942 800.58 125.946 801.473 125.951 802.393C125.963 804.595 125.979 806.797 126 809C120.342 811.377 115.612 812.489 109.5 812.687C108.773 812.722 108.046 812.756 107.297 812.791C105.532 812.872 103.766 812.938 102 813C101.623 804.868 101.246 795.727 106.582 789.008C108.275 786.61 108.404 785.28 108.375 782.375C108.383 781.599 108.39 780.823 108.398 780.023C108.267 779.356 108.135 778.688 108 778C104.459 775.639 103.172 775.427 98.9999 776C92.1705 780.371 89.1452 786.751 87.371 794.57C86.5406 800.007 86.2928 805.512 85.9999 811C80.0554 809.601 76.0696 807.911 72.3945 802.742C69.3983 796.851 70.0516 790.012 71.996 783.836C77.5115 771.742 86.6576 763.694 98.9999 759C119.196 752.658 140.077 759.208 156.039 772.07Z" fill="#FAFBFB"/>
<path d="M260.187 162C268.393 166.617 272.749 173.144 276.133 181.813C277.516 186.896 277.416 191.781 277 197C276.34 196.01 275.68 195.02 275 194C272.572 190.682 270.826 188.535 267 187C262.062 186.299 258.111 186.444 253.625 188.688C248.941 192.814 245.327 196.878 244.664 203.207C244.449 212.881 244.449 212.881 249 221C252.634 223.79 256.43 225.446 261 226C260 228 260 228 257.336 229.102C250.723 230.883 243.011 231.319 236.625 228.5C229.237 224.08 224.613 217.129 222.453 208.922C220.576 196.819 220.431 183.651 227 173C227.617 171.979 227.617 171.979 228.246 170.938C235.647 160.747 248.852 156.99 260.187 162Z" fill="#FAFBFB"/>
<path d="M453 163C460.803 167.322 465.162 173.882 468.141 182.176C470.642 193.307 470.957 207.984 465 218C461.218 223.611 456.703 228.295 450 230C442.512 230.746 436.64 230.804 430 227C430 226.67 430 226.34 430 226C430.664 225.853 431.328 225.706 432.012 225.555C439.341 223.693 442.197 221.662 446.102 215.168C448.188 210.133 447.802 203.785 446.312 198.613C444.135 193.85 441.26 190.991 437 188C431.599 186.2 426.783 186.142 421.625 188.625C418.771 191.207 417.448 193.46 416 197C415.67 197 415.34 197 415 197C414.3 185.855 416.152 176.561 423.285 167.723C431.846 159.123 442.216 158.033 453 163Z" fill="#FBFBFB"/>
<path d="M156 847C281.07 847 406.14 847 535 847C533.515 847.495 533.515 847.495 532 848C532 848.66 532 849.32 532 850C409.24 850 286.48 850 160 850C160 849.34 160 848.68 160 848C158.68 847.67 157.36 847.34 156 847Z" fill="#132023"/>
<path d="M449.781 680.98C453.676 684.083 455.739 686.85 456.336 691.77C456.421 698.419 456.156 702.69 452 708C449.089 710.391 445.752 710.477 442.031 710.387C438.319 709.68 436.583 707.707 434 705C430.916 700.111 431.403 694.571 432 689C433.172 685.489 434.851 682.944 437.75 680.562C441.923 679.519 445.923 678.857 449.781 680.98Z" fill="#FBFBFB"/>
<path d="M392 314C394.375 315.625 394.375 315.625 396 318C396.563 321.438 396.563 321.438 396 325C393.554 328.381 392.107 329.769 388 330.625C383.926 329.776 382.456 328.323 380 325C379.255 321.029 379.627 319.559 381.875 316.188C385.385 312.575 387.194 312.75 392 314Z" fill="#0B161A"/>
<path d="M308 314C310.818 316.596 311.856 318.23 312.562 322C311.793 326.104 310.329 327.54 307 330C304 330.625 304 330.625 301 330C298.125 327.938 298.125 327.938 296 325C295.438 321.438 295.438 321.438 296 318C299.687 313.329 302.26 312.393 308 314Z" fill="#0B161A"/>
<path d="M418 296C420.375 297.625 420.375 297.625 422 300C422.562 303.438 422.562 303.438 422 307C419.521 310.427 418.145 311.813 413.937 312.5C410.571 311.927 409.21 311.619 407 309C406.09 306.288 405.75 303.853 406 301C409.41 295.473 411.753 294.376 418 296Z" fill="#0B161B"/>
<path d="M282 296C284.438 298.125 284.438 298.125 286 301C286.075 305.264 285.648 307.237 282.875 310.5C279.084 312.478 277.072 312.131 273 311C271.063 309.938 271.063 309.938 270 308C269.223 301.01 269.223 301.01 271.875 297.563C275.643 294.792 277.448 294.725 282 296Z" fill="#0E1B20"/>
<path d="M294 183C296.474 185.474 296.26 186.93 296.273 190.312C296.266 190.993 296.258 191.674 296.25 192.375C296.258 193.048 296.265 193.721 296.273 194.414C296.259 198.108 296.027 200.864 294 204C292.359 200.719 292.857 197.102 292.875 193.5C292.871 192.715 292.867 191.93 292.863 191.121C292.873 185.253 292.873 185.253 294 183Z" fill="#132023"/>
<path d="M60.0001 640C60.3301 640 60.6601 640 61.0001 640C61.6677 643.922 62.1199 647.771 62.2501 651.75C62.2759 652.487 62.3017 653.225 62.3282 653.984C61.9149 656.524 60.943 657.384 59.0001 659C58.9731 656.396 58.9533 653.792 58.9376 651.188C58.9292 650.45 58.9209 649.712 58.9122 648.951C58.8975 645.701 58.9648 643.106 60.0001 640Z" fill="#95CECB"/>
<path d="M377 362C379.25 361.946 381.5 361.907 383.75 361.875C385.003 361.852 386.256 361.829 387.547 361.805C390.728 361.985 392.365 362.31 395 364C390.647 364.84 386.556 365.108 382.125 365.062C380.973 365.053 379.82 365.044 378.633 365.035C377.764 365.024 376.895 365.012 376 365C376.33 364.01 376.66 363.02 377 362Z" fill="#161F23"/>
<path d="M418 296C418.66 296.66 419.32 297.32 420 298C419.01 298.33 418.02 298.66 417 299C416.67 298.67 416.34 298.34 416 298C412.625 299.186 410.353 300.276 408 303C408.576 300.614 409.222 298.333 410 296C412.907 294.546 414.896 295.289 418 296Z" fill="#151E21"/>
<path d="M439 230C442.63 230 446.26 230 450 230C449.01 230.495 449.01 230.495 448 231C448 231.66 448 232.32 448 233C445.36 233 442.72 233 440 233C439.67 232.01 439.34 231.02 439 230Z" fill="#182124"/>
<path d="M366 3C368.083 2.97291 370.167 2.95356 372.25 2.9375C373.41 2.9259 374.57 2.9143 375.766 2.90234C378.41 2.98218 380.498 3.21356 383 4C383 4.66 383 5.32 383 6C380.667 6.04242 378.333 6.04093 376 6C375.67 5.67 375.34 5.34 375 5C373.485 4.76807 371.962 4.58785 370.438 4.4375C369.611 4.35371 368.785 4.26992 367.934 4.18359C367.296 4.12301 366.657 4.06242 366 4C366 3.67 366 3.34 366 3Z" fill="#060D0E"/>
<path d="M602 790C604.493 793.74 604.06 795.291 603.625 799.688C603.514 800.867 603.403 802.046 603.289 803.262C603.194 804.165 603.098 805.069 603 806C602.67 806 602.34 806 602 806C601.805 803.897 601.619 801.792 601.438 799.688C601.333 798.516 601.229 797.344 601.121 796.137C601 793 601 793 602 790Z" fill="#192529"/>
<path d="M625 469C627.12 472.534 627.532 475.944 628 480C627.01 480 626.02 480 625 480C623.714 472.571 623.714 472.571 625 469Z" fill="#151E21"/>
<path d="M288 9C287.67 9.66 287.34 10.32 287 11C285.004 11.4844 285.004 11.4844 282.562 11.75C281.358 11.8969 281.358 11.8969 280.129 12.0469C278 12 278 12 276 10C277.435 9.63597 278.873 9.28413 280.312 8.9375C281.113 8.74027 281.914 8.54304 282.738 8.33984C285 8 285 8 288 9Z" fill="#161D20"/>
<path d="M550 138C550.99 138.33 551.98 138.66 553 139C553 141.333 553 143.667 553 146C552.01 146 551.02 146 550 146C549.619 143.674 549.287 141.339 549 139C549.33 138.67 549.66 138.34 550 138Z" fill="#88BDBB"/>
<path d="M61 657C61.33 657 61.66 657 62 657C62 660.3 62 663.6 62 667C61.01 666.67 60.02 666.34 59 666C58.875 662.625 58.875 662.625 59 659C59.66 658.34 60.32 657.68 61 657Z" fill="#82B6B4"/>
<path d="M88 460C88.66 460.33 89.32 460.66 90 461C90 461.99 90 462.98 90 464C89.34 464 88.68 464 88 464C87.34 466.31 86.68 468.62 86 471C85.0454 468.83 84.856 467.437 85.6016 465.176C86.3587 463.432 87.1761 461.714 88 460Z" fill="#9BD6D3"/>
<path d="M430 143C429.67 143.99 429.34 144.98 429 146C425.938 147.188 425.938 147.188 423 148C422.34 147.34 421.68 146.68 421 146C427.75 143 427.75 143 430 143Z" fill="#121E21"/>
<path d="M42 637C42.66 637 43.32 637 44 637C44 639.31 44 641.62 44 644C43.01 644 42.02 644 41 644C40.9575 642 40.9592 640 41 638C41.33 637.67 41.66 637.34 42 637Z" fill="#182024"/>
<path d="M641 612C644.15 615.423 644.562 618.443 645 623C644.67 622.34 644.34 621.68 644 621C643.34 621 642.68 621 642 621C641.67 618.03 641.34 615.06 641 612Z" fill="#0A0F12"/>
<path d="M391 259C391.99 259.33 392.98 259.66 394 260C394 260.99 394 261.98 394 263C393.34 263 392.68 263 392 263C392 265.97 392 268.94 392 272C391.67 272 391.34 272 391 272C391 267.71 391 263.42 391 259Z" fill="#152326"/>
<path d="M334 235C337.125 234.812 337.125 234.812 340 235C340 235.66 340 236.32 340 237C340.99 237.33 341.98 237.66 343 238C339.37 238 335.74 238 332 238C332.66 237.01 333.32 236.02 334 235Z" fill="#152126"/>
<path d="M110 829C112.97 829 115.94 829 119 829C117.515 830.485 117.515 830.485 116 832C112.312 831.688 112.312 831.688 109 831C109.33 830.34 109.66 829.68 110 829Z" fill="#152226"/>
<path d="M190 421C193.719 421.507 196.735 422.116 200 424C199.67 424.66 199.34 425.32 199 426C194.686 425.521 192.834 424.254 190 421Z" fill="#111F23"/>
<path d="M150 862C152.97 862.495 152.97 862.495 156 863C156 863.99 156 864.98 156 866C153.03 865.505 153.03 865.505 150 865C150 864.01 150 863.02 150 862Z" fill="#1A2527"/>
<path d="M101 383C101.99 383 102.98 383 104 383C103.25 388.75 103.25 388.75 101 391C100.019 387.947 100.019 386.053 101 383Z" fill="#152023"/>
<path d="M105 374C105.934 377.01 106.044 377.867 105 381C104.01 381 103.02 381 102 381C102.375 378.062 102.375 378.062 103 375C103.66 374.67 104.32 374.34 105 374Z" fill="#1B2426"/>
<path d="M235.244 684C227.95 684 221.709 682.741 216.522 680.222C211.416 677.703 207.242 674.371 204 670.227L213.604 660.233C216.765 663.889 220.169 666.611 223.816 668.399C227.545 670.105 231.516 670.958 235.73 670.958C240.593 670.958 244.322 669.861 246.915 667.668C249.509 665.474 250.805 662.305 250.805 658.161C250.805 654.748 249.833 652.188 247.888 650.482C245.943 648.694 242.66 647.435 238.04 646.704L229.044 645.241C221.182 643.86 215.59 641.016 212.267 636.709C208.944 632.321 207.282 627.162 207.282 621.23C207.282 613.104 209.917 606.888 215.185 602.582C220.453 598.194 227.747 596 237.068 596C243.714 596 249.428 597.056 254.209 599.169C259.072 601.282 262.963 604.166 265.88 607.823L256.519 617.817C254.25 615.136 251.535 613.023 248.374 611.479C245.213 609.854 241.485 609.042 237.189 609.042C227.95 609.042 223.33 612.861 223.33 620.499C223.33 623.749 224.303 626.227 226.248 627.934C228.193 629.64 231.516 630.899 236.217 631.712L245.092 633.296C252.467 634.678 257.938 637.4 261.504 641.463C265.07 645.525 266.853 650.726 266.853 657.064C266.853 661.045 266.164 664.702 264.786 668.033C263.408 671.283 261.382 674.127 258.708 676.565C256.033 678.922 252.71 680.75 248.739 682.05C244.848 683.35 240.35 684 235.244 684Z" fill="#0B191D"/>
<path d="M308.14 684C300.846 684 294.605 682.741 289.418 680.222C284.312 677.703 280.138 674.371 276.896 670.227L286.5 660.233C289.661 663.889 293.065 666.611 296.712 668.399C300.441 670.105 304.412 670.958 308.626 670.958C313.489 670.958 317.218 669.861 319.811 667.668C322.405 665.474 323.701 662.305 323.701 658.161C323.701 654.748 322.729 652.188 320.784 650.482C318.839 648.694 315.556 647.435 310.936 646.704L301.94 645.241C294.078 643.86 288.486 641.016 285.163 636.709C281.84 632.321 280.178 627.162 280.178 621.23C280.178 613.104 282.813 606.888 288.081 602.582C293.349 598.194 300.643 596 309.964 596C316.61 596 322.324 597.056 327.106 599.169C331.968 601.282 335.859 604.166 338.776 607.823L329.415 617.817C327.146 615.136 324.431 613.023 321.27 611.479C318.109 609.854 314.381 609.042 310.085 609.042C300.846 609.042 296.226 612.861 296.226 620.499C296.226 623.749 297.199 626.227 299.144 627.934C301.089 629.64 304.412 630.899 309.113 631.712L317.988 633.296C325.363 634.678 330.834 637.4 334.4 641.463C337.966 645.525 339.749 650.726 339.749 657.064C339.749 661.045 339.06 664.702 337.682 668.033C336.304 671.283 334.278 674.127 331.604 676.565C328.929 678.922 325.606 680.75 321.635 682.05C317.744 683.35 313.246 684 308.14 684Z" fill="#0B191D"/>
<path d="M396.719 670.715H395.747C395.017 672.421 394.126 674.087 393.072 675.712C392.018 677.337 390.722 678.759 389.182 679.978C387.642 681.197 385.818 682.172 383.711 682.903C381.685 683.634 379.334 684 376.66 684C368.068 684 361.544 680.222 357.086 672.665C352.71 665.027 350.522 654.342 350.522 640.609C350.522 626.146 353.115 615.095 358.302 607.457C363.489 599.819 371.473 596 382.252 596C386.466 596 390.154 596.569 393.315 597.706C396.557 598.844 399.313 600.428 401.582 602.46C403.932 604.491 405.837 606.929 407.296 609.773C408.836 612.536 410.052 615.542 410.943 618.792L396.354 622.936C395.787 621.149 395.139 619.402 394.409 617.695C393.761 615.989 392.869 614.526 391.735 613.307C390.681 612.007 389.384 610.992 387.844 610.26C386.304 609.448 384.4 609.042 382.13 609.042C376.862 609.042 373.093 611.154 370.824 615.38C368.555 619.605 367.42 625.374 367.42 632.687V646.338C367.42 649.994 367.663 653.367 368.15 656.454C368.717 659.461 369.608 662.061 370.824 664.255C372.04 666.449 373.62 668.155 375.565 669.374C377.511 670.512 379.942 671.08 382.86 671.08C387.399 671.08 390.843 669.74 393.193 667.058C395.544 664.295 396.719 660.801 396.719 656.576V649.629H381.279V638.05H410.943V682.537H396.719V670.715Z" fill="#0B191D"/>
<path d="M454.905 684C449.394 684 444.612 683.025 440.559 681.075C436.507 679.043 433.143 676.159 430.469 672.421C427.875 668.683 425.93 664.092 424.633 658.648C423.418 653.204 422.81 646.988 422.81 640C422.81 633.093 423.418 626.918 424.633 621.474C425.93 615.948 427.875 611.317 430.469 607.579C433.143 603.841 436.507 600.997 440.559 599.047C444.612 597.016 449.394 596 454.905 596C465.927 596 474.032 599.86 479.219 607.579C484.406 615.298 487 626.105 487 640C487 653.895 484.406 664.702 479.219 672.421C474.032 680.14 465.927 684 454.905 684ZM454.905 670.958C457.742 670.958 460.132 670.43 462.078 669.374C464.023 668.236 465.563 666.652 466.697 664.62C467.913 662.589 468.764 660.111 469.25 657.186C469.818 654.179 470.101 650.848 470.101 647.191V632.687C470.101 625.374 468.967 619.605 466.697 615.38C464.509 611.154 460.578 609.042 454.905 609.042C449.231 609.042 445.26 611.154 442.991 615.38C440.802 619.605 439.708 625.374 439.708 632.687V647.313C439.708 654.626 440.802 660.395 442.991 664.62C445.26 668.846 449.231 670.958 454.905 670.958Z" fill="#0B191D"/>
</svg>
